M48
; DRILL file {KiCad 9.0.0} date 2026-01-27T15:05:26-0500
; FORMAT={-:-/ absolute / metric / decimal}
; #@! TF.CreationDate,2026-01-27T15:05:26-05:00
; #@! TF.GenerationSoftware,Kicad,Pcbnew,9.0.0
; #@! TF.FileFunction,Plated,1,2,PTH
FMAT,2
METRIC
; #@! TA.AperFunction,Plated,PTH,ViaDrill
T1C0.300
; #@! TA.AperFunction,Plated,PTH,ComponentDrill
T2C0.889
; #@! TA.AperFunction,Plated,PTH,ComponentDrill
T3C1.000
%
G90
G05
T1
X127.75Y-96.25
X131.75Y-105.25
X131.75Y-106.5
X132.066Y-103.934
X133.0Y-114.5
X146.5Y-95.0
T2
X139.72Y-105.02
X139.72Y-107.06
X139.72Y-109.1
X139.72Y-111.14
X141.75Y-104.0
X141.75Y-106.04
X141.75Y-108.08
X141.75Y-110.12
T3
G00X126.475Y-88.062
M15
G01X126.475Y-86.062
M16
G05
G00X130.175Y-84.062
M15
G01X132.175Y-84.062
M16
G05
G00X129.925Y-90.062
M15
G01X132.425Y-90.062
M16
G05
M30
