%TF.GenerationSoftware,KiCad,Pcbnew,9.0.0*%
%TF.CreationDate,2026-01-27T15:05:20-05:00*%
%TF.ProjectId,JST-GH_RJ45,4a53542d-4748-45f5-924a-34352e6b6963,rev?*%
%TF.SameCoordinates,Original*%
%TF.FileFunction,Soldermask,Top*%
%TF.FilePolarity,Negative*%
%FSLAX46Y46*%
G04 Gerber Fmt 4.6, Leading zero omitted, Abs format (unit mm)*
G04 Created by KiCad (PCBNEW 9.0.0) date 2026-01-27 15:05:20*
%MOMM*%
%LPD*%
G01*
G04 APERTURE LIST*
G04 Aperture macros list*
%AMRoundRect*
0 Rectangle with rounded corners*
0 $1 Rounding radius*
0 $2 $3 $4 $5 $6 $7 $8 $9 X,Y pos of 4 corners*
0 Add a 4 corners polygon primitive as box body*
4,1,4,$2,$3,$4,$5,$6,$7,$8,$9,$2,$3,0*
0 Add four circle primitives for the rounded corners*
1,1,$1+$1,$2,$3*
1,1,$1+$1,$4,$5*
1,1,$1+$1,$6,$7*
1,1,$1+$1,$8,$9*
0 Add four rect primitives between the rounded corners*
20,1,$1+$1,$2,$3,$4,$5,0*
20,1,$1+$1,$4,$5,$6,$7,0*
20,1,$1+$1,$6,$7,$8,$9,0*
20,1,$1+$1,$8,$9,$2,$3,0*%
G04 Aperture macros list end*
%ADD10RoundRect,0.250000X-0.450000X0.350000X-0.450000X-0.350000X0.450000X-0.350000X0.450000X0.350000X0*%
%ADD11RoundRect,0.250000X0.412500X1.100000X-0.412500X1.100000X-0.412500X-1.100000X0.412500X-1.100000X0*%
%ADD12RoundRect,0.250000X-1.500000X-0.650000X1.500000X-0.650000X1.500000X0.650000X-1.500000X0.650000X0*%
%ADD13C,2.700000*%
%ADD14O,5.204000X2.704000*%
%ADD15O,4.704000X2.454000*%
%ADD16O,2.454000X4.704000*%
%ADD17C,3.251200*%
%ADD18C,1.397000*%
%ADD19R,1.701800X0.660400*%
%ADD20R,2.794000X0.990600*%
%ADD21RoundRect,0.250000X0.650000X-1.500000X0.650000X1.500000X-0.650000X1.500000X-0.650000X-1.500000X0*%
%ADD22R,1.346200X0.965200*%
G04 APERTURE END LIST*
D10*
%TO.C,R2*%
X146500000Y-86927100D03*
X146500000Y-88927100D03*
%TD*%
D11*
%TO.C,C1*%
X133062500Y-95750000D03*
X129937500Y-95750000D03*
%TD*%
D12*
%TO.C,D1*%
X136500000Y-96000000D03*
X141500000Y-96000000D03*
%TD*%
D13*
%TO.C,H1*%
X130000000Y-120000000D03*
%TD*%
D14*
%TO.C,J2*%
X131175000Y-90062500D03*
D15*
X131175000Y-84062500D03*
D16*
X126475000Y-87062500D03*
%TD*%
D13*
%TO.C,H3*%
X147500000Y-120000000D03*
%TD*%
D17*
%TO.C,J1*%
X146750000Y-113285000D03*
X146750000Y-101855000D03*
D18*
X139719999Y-105020000D03*
X141750000Y-104000000D03*
X141750000Y-106040001D03*
X141750000Y-108079999D03*
X139719999Y-107060001D03*
X139719999Y-109100000D03*
X139719999Y-111140001D03*
X141750000Y-110120000D03*
%TD*%
D13*
%TO.C,H2*%
X147500000Y-80000000D03*
%TD*%
D19*
%TO.C,J3*%
X129943601Y-102684451D03*
X129943601Y-103934451D03*
X129943601Y-105184451D03*
X129943601Y-106434451D03*
X129943601Y-107684451D03*
X129943601Y-108934451D03*
X129943601Y-110184451D03*
X129943601Y-111434451D03*
D20*
X126743600Y-100834449D03*
X126743600Y-113284453D03*
%TD*%
D21*
%TO.C,D2*%
X139500000Y-90250000D03*
X139500000Y-85250000D03*
%TD*%
D22*
%TO.C,LED1*%
X146500000Y-93604200D03*
X146500000Y-91750000D03*
%TD*%
D10*
%TO.C,R1*%
X132500000Y-111000000D03*
X132500000Y-113000000D03*
%TD*%
M02*
