%TF.GenerationSoftware,KiCad,Pcbnew,9.0.0*%
%TF.CreationDate,2026-01-27T15:05:20-05:00*%
%TF.ProjectId,JST-GH_RJ45,4a53542d-4748-45f5-924a-34352e6b6963,rev?*%
%TF.SameCoordinates,Original*%
%TF.FileFunction,Legend,Top*%
%TF.FilePolarity,Positive*%
%FSLAX46Y46*%
G04 Gerber Fmt 4.6, Leading zero omitted, Abs format (unit mm)*
G04 Created by KiCad (PCBNEW 9.0.0) date 2026-01-27 15:05:20*
%MOMM*%
%LPD*%
G01*
G04 APERTURE LIST*
%ADD10C,0.100000*%
%ADD11C,0.150000*%
%ADD12C,0.120000*%
%ADD13C,0.127000*%
%ADD14C,0.400000*%
%ADD15C,0.152400*%
%ADD16C,0.508000*%
G04 APERTURE END LIST*
D10*
X142196115Y-77258533D02*
X141434211Y-77258533D01*
X141815163Y-76877580D02*
X141815163Y-77639485D01*
X140434211Y-76877580D02*
X141005639Y-76877580D01*
X140719925Y-76877580D02*
X140719925Y-77877580D01*
X140719925Y-77877580D02*
X140815163Y-77734723D01*
X140815163Y-77734723D02*
X140910401Y-77639485D01*
X140910401Y-77639485D02*
X141005639Y-77591866D01*
X140053258Y-77782342D02*
X140005639Y-77829961D01*
X140005639Y-77829961D02*
X139910401Y-77877580D01*
X139910401Y-77877580D02*
X139672306Y-77877580D01*
X139672306Y-77877580D02*
X139577068Y-77829961D01*
X139577068Y-77829961D02*
X139529449Y-77782342D01*
X139529449Y-77782342D02*
X139481830Y-77687104D01*
X139481830Y-77687104D02*
X139481830Y-77591866D01*
X139481830Y-77591866D02*
X139529449Y-77449009D01*
X139529449Y-77449009D02*
X140100877Y-76877580D01*
X140100877Y-76877580D02*
X139481830Y-76877580D01*
X139196115Y-77877580D02*
X138862782Y-76877580D01*
X138862782Y-76877580D02*
X138529449Y-77877580D01*
X138196115Y-76877580D02*
X138196115Y-77877580D01*
X138196115Y-77877580D02*
X137958020Y-77877580D01*
X137958020Y-77877580D02*
X137815163Y-77829961D01*
X137815163Y-77829961D02*
X137719925Y-77734723D01*
X137719925Y-77734723D02*
X137672306Y-77639485D01*
X137672306Y-77639485D02*
X137624687Y-77449009D01*
X137624687Y-77449009D02*
X137624687Y-77306152D01*
X137624687Y-77306152D02*
X137672306Y-77115676D01*
X137672306Y-77115676D02*
X137719925Y-77020438D01*
X137719925Y-77020438D02*
X137815163Y-76925200D01*
X137815163Y-76925200D02*
X137958020Y-76877580D01*
X137958020Y-76877580D02*
X138196115Y-76877580D01*
X136624687Y-76972819D02*
X136672306Y-76925200D01*
X136672306Y-76925200D02*
X136815163Y-76877580D01*
X136815163Y-76877580D02*
X136910401Y-76877580D01*
X136910401Y-76877580D02*
X137053258Y-76925200D01*
X137053258Y-76925200D02*
X137148496Y-77020438D01*
X137148496Y-77020438D02*
X137196115Y-77115676D01*
X137196115Y-77115676D02*
X137243734Y-77306152D01*
X137243734Y-77306152D02*
X137243734Y-77449009D01*
X137243734Y-77449009D02*
X137196115Y-77639485D01*
X137196115Y-77639485D02*
X137148496Y-77734723D01*
X137148496Y-77734723D02*
X137053258Y-77829961D01*
X137053258Y-77829961D02*
X136910401Y-77877580D01*
X136910401Y-77877580D02*
X136815163Y-77877580D01*
X136815163Y-77877580D02*
X136672306Y-77829961D01*
X136672306Y-77829961D02*
X136624687Y-77782342D01*
D11*
X148704819Y-88093766D02*
X148228628Y-88427099D01*
X148704819Y-88665194D02*
X147704819Y-88665194D01*
X147704819Y-88665194D02*
X147704819Y-88284242D01*
X147704819Y-88284242D02*
X147752438Y-88189004D01*
X147752438Y-88189004D02*
X147800057Y-88141385D01*
X147800057Y-88141385D02*
X147895295Y-88093766D01*
X147895295Y-88093766D02*
X148038152Y-88093766D01*
X148038152Y-88093766D02*
X148133390Y-88141385D01*
X148133390Y-88141385D02*
X148181009Y-88189004D01*
X148181009Y-88189004D02*
X148228628Y-88284242D01*
X148228628Y-88284242D02*
X148228628Y-88665194D01*
X147800057Y-87712813D02*
X147752438Y-87665194D01*
X147752438Y-87665194D02*
X147704819Y-87569956D01*
X147704819Y-87569956D02*
X147704819Y-87331861D01*
X147704819Y-87331861D02*
X147752438Y-87236623D01*
X147752438Y-87236623D02*
X147800057Y-87189004D01*
X147800057Y-87189004D02*
X147895295Y-87141385D01*
X147895295Y-87141385D02*
X147990533Y-87141385D01*
X147990533Y-87141385D02*
X148133390Y-87189004D01*
X148133390Y-87189004D02*
X148704819Y-87760432D01*
X148704819Y-87760432D02*
X148704819Y-87141385D01*
X131333333Y-93859580D02*
X131285714Y-93907200D01*
X131285714Y-93907200D02*
X131142857Y-93954819D01*
X131142857Y-93954819D02*
X131047619Y-93954819D01*
X131047619Y-93954819D02*
X130904762Y-93907200D01*
X130904762Y-93907200D02*
X130809524Y-93811961D01*
X130809524Y-93811961D02*
X130761905Y-93716723D01*
X130761905Y-93716723D02*
X130714286Y-93526247D01*
X130714286Y-93526247D02*
X130714286Y-93383390D01*
X130714286Y-93383390D02*
X130761905Y-93192914D01*
X130761905Y-93192914D02*
X130809524Y-93097676D01*
X130809524Y-93097676D02*
X130904762Y-93002438D01*
X130904762Y-93002438D02*
X131047619Y-92954819D01*
X131047619Y-92954819D02*
X131142857Y-92954819D01*
X131142857Y-92954819D02*
X131285714Y-93002438D01*
X131285714Y-93002438D02*
X131333333Y-93050057D01*
X132285714Y-93954819D02*
X131714286Y-93954819D01*
X132000000Y-93954819D02*
X132000000Y-92954819D01*
X132000000Y-92954819D02*
X131904762Y-93097676D01*
X131904762Y-93097676D02*
X131809524Y-93192914D01*
X131809524Y-93192914D02*
X131714286Y-93240533D01*
X138261905Y-93954819D02*
X138261905Y-92954819D01*
X138261905Y-92954819D02*
X138500000Y-92954819D01*
X138500000Y-92954819D02*
X138642857Y-93002438D01*
X138642857Y-93002438D02*
X138738095Y-93097676D01*
X138738095Y-93097676D02*
X138785714Y-93192914D01*
X138785714Y-93192914D02*
X138833333Y-93383390D01*
X138833333Y-93383390D02*
X138833333Y-93526247D01*
X138833333Y-93526247D02*
X138785714Y-93716723D01*
X138785714Y-93716723D02*
X138738095Y-93811961D01*
X138738095Y-93811961D02*
X138642857Y-93907200D01*
X138642857Y-93907200D02*
X138500000Y-93954819D01*
X138500000Y-93954819D02*
X138261905Y-93954819D01*
X139785714Y-93954819D02*
X139214286Y-93954819D01*
X139500000Y-93954819D02*
X139500000Y-92954819D01*
X139500000Y-92954819D02*
X139404762Y-93097676D01*
X139404762Y-93097676D02*
X139309524Y-93192914D01*
X139309524Y-93192914D02*
X139214286Y-93240533D01*
X136204375Y-81583609D02*
X136919251Y-81583609D01*
X136919251Y-81583609D02*
X137062227Y-81631267D01*
X137062227Y-81631267D02*
X137157544Y-81726584D01*
X137157544Y-81726584D02*
X137205202Y-81869559D01*
X137205202Y-81869559D02*
X137205202Y-81964876D01*
X136299692Y-81154683D02*
X136252033Y-81107024D01*
X136252033Y-81107024D02*
X136204375Y-81011708D01*
X136204375Y-81011708D02*
X136204375Y-80773415D01*
X136204375Y-80773415D02*
X136252033Y-80678099D01*
X136252033Y-80678099D02*
X136299692Y-80630440D01*
X136299692Y-80630440D02*
X136395009Y-80582782D01*
X136395009Y-80582782D02*
X136490326Y-80582782D01*
X136490326Y-80582782D02*
X136633301Y-80630440D01*
X136633301Y-80630440D02*
X137205202Y-81202341D01*
X137205202Y-81202341D02*
X137205202Y-80582782D01*
X133704819Y-107833333D02*
X134419104Y-107833333D01*
X134419104Y-107833333D02*
X134561961Y-107880952D01*
X134561961Y-107880952D02*
X134657200Y-107976190D01*
X134657200Y-107976190D02*
X134704819Y-108119047D01*
X134704819Y-108119047D02*
X134704819Y-108214285D01*
X134704819Y-106833333D02*
X134704819Y-107404761D01*
X134704819Y-107119047D02*
X133704819Y-107119047D01*
X133704819Y-107119047D02*
X133847676Y-107214285D01*
X133847676Y-107214285D02*
X133942914Y-107309523D01*
X133942914Y-107309523D02*
X133990533Y-107404761D01*
X132545180Y-107416666D02*
X131830895Y-107416666D01*
X131830895Y-107416666D02*
X131688038Y-107369047D01*
X131688038Y-107369047D02*
X131592800Y-107273809D01*
X131592800Y-107273809D02*
X131545180Y-107130952D01*
X131545180Y-107130952D02*
X131545180Y-107035714D01*
X132545180Y-107797619D02*
X132545180Y-108416666D01*
X132545180Y-108416666D02*
X132164228Y-108083333D01*
X132164228Y-108083333D02*
X132164228Y-108226190D01*
X132164228Y-108226190D02*
X132116609Y-108321428D01*
X132116609Y-108321428D02*
X132068990Y-108369047D01*
X132068990Y-108369047D02*
X131973752Y-108416666D01*
X131973752Y-108416666D02*
X131735657Y-108416666D01*
X131735657Y-108416666D02*
X131640419Y-108369047D01*
X131640419Y-108369047D02*
X131592800Y-108321428D01*
X131592800Y-108321428D02*
X131545180Y-108226190D01*
X131545180Y-108226190D02*
X131545180Y-107940476D01*
X131545180Y-107940476D02*
X131592800Y-107845238D01*
X131592800Y-107845238D02*
X131640419Y-107797619D01*
X137454819Y-88488094D02*
X136454819Y-88488094D01*
X136454819Y-88488094D02*
X136454819Y-88249999D01*
X136454819Y-88249999D02*
X136502438Y-88107142D01*
X136502438Y-88107142D02*
X136597676Y-88011904D01*
X136597676Y-88011904D02*
X136692914Y-87964285D01*
X136692914Y-87964285D02*
X136883390Y-87916666D01*
X136883390Y-87916666D02*
X137026247Y-87916666D01*
X137026247Y-87916666D02*
X137216723Y-87964285D01*
X137216723Y-87964285D02*
X137311961Y-88011904D01*
X137311961Y-88011904D02*
X137407200Y-88107142D01*
X137407200Y-88107142D02*
X137454819Y-88249999D01*
X137454819Y-88249999D02*
X137454819Y-88488094D01*
X136550057Y-87535713D02*
X136502438Y-87488094D01*
X136502438Y-87488094D02*
X136454819Y-87392856D01*
X136454819Y-87392856D02*
X136454819Y-87154761D01*
X136454819Y-87154761D02*
X136502438Y-87059523D01*
X136502438Y-87059523D02*
X136550057Y-87011904D01*
X136550057Y-87011904D02*
X136645295Y-86964285D01*
X136645295Y-86964285D02*
X136740533Y-86964285D01*
X136740533Y-86964285D02*
X136883390Y-87011904D01*
X136883390Y-87011904D02*
X137454819Y-87583332D01*
X137454819Y-87583332D02*
X137454819Y-86964285D01*
X148704819Y-93796147D02*
X148704819Y-94272337D01*
X148704819Y-94272337D02*
X147704819Y-94272337D01*
X148181009Y-93462813D02*
X148181009Y-93129480D01*
X148704819Y-92986623D02*
X148704819Y-93462813D01*
X148704819Y-93462813D02*
X147704819Y-93462813D01*
X147704819Y-93462813D02*
X147704819Y-92986623D01*
X148704819Y-92558051D02*
X147704819Y-92558051D01*
X147704819Y-92558051D02*
X147704819Y-92319956D01*
X147704819Y-92319956D02*
X147752438Y-92177099D01*
X147752438Y-92177099D02*
X147847676Y-92081861D01*
X147847676Y-92081861D02*
X147942914Y-92034242D01*
X147942914Y-92034242D02*
X148133390Y-91986623D01*
X148133390Y-91986623D02*
X148276247Y-91986623D01*
X148276247Y-91986623D02*
X148466723Y-92034242D01*
X148466723Y-92034242D02*
X148561961Y-92081861D01*
X148561961Y-92081861D02*
X148657200Y-92177099D01*
X148657200Y-92177099D02*
X148704819Y-92319956D01*
X148704819Y-92319956D02*
X148704819Y-92558051D01*
X148704819Y-91034242D02*
X148704819Y-91605670D01*
X148704819Y-91319956D02*
X147704819Y-91319956D01*
X147704819Y-91319956D02*
X147847676Y-91415194D01*
X147847676Y-91415194D02*
X147942914Y-91510432D01*
X147942914Y-91510432D02*
X147990533Y-91605670D01*
X134604819Y-112166666D02*
X134128628Y-112499999D01*
X134604819Y-112738094D02*
X133604819Y-112738094D01*
X133604819Y-112738094D02*
X133604819Y-112357142D01*
X133604819Y-112357142D02*
X133652438Y-112261904D01*
X133652438Y-112261904D02*
X133700057Y-112214285D01*
X133700057Y-112214285D02*
X133795295Y-112166666D01*
X133795295Y-112166666D02*
X133938152Y-112166666D01*
X133938152Y-112166666D02*
X134033390Y-112214285D01*
X134033390Y-112214285D02*
X134081009Y-112261904D01*
X134081009Y-112261904D02*
X134128628Y-112357142D01*
X134128628Y-112357142D02*
X134128628Y-112738094D01*
X134604819Y-111214285D02*
X134604819Y-111785713D01*
X134604819Y-111499999D02*
X133604819Y-111499999D01*
X133604819Y-111499999D02*
X133747676Y-111595237D01*
X133747676Y-111595237D02*
X133842914Y-111690475D01*
X133842914Y-111690475D02*
X133890533Y-111785713D01*
D12*
%TO.C,R2*%
X145765000Y-87700036D02*
X145765000Y-88154164D01*
X147235000Y-87700036D02*
X147235000Y-88154164D01*
%TO.C,C1*%
X132211252Y-94390000D02*
X130788748Y-94390000D01*
X132211252Y-97110000D02*
X130788748Y-97110000D01*
%TO.C,D1*%
X134490000Y-94350000D02*
X134490000Y-97650000D01*
X134490000Y-94350000D02*
X141500000Y-94350000D01*
X134490000Y-97650000D02*
X141500000Y-97650000D01*
D13*
%TO.C,J2*%
X126675000Y-76362500D02*
X135675000Y-76362500D01*
X126675000Y-84512500D02*
X126675000Y-76362500D01*
X126675000Y-90762500D02*
X126675000Y-89612500D01*
X128625000Y-90762500D02*
X126675000Y-90762500D01*
X135675000Y-76362500D02*
X135675000Y-90762500D01*
X135675000Y-90762500D02*
X133825000Y-90762500D01*
D14*
X131375000Y-92062500D02*
G75*
G02*
X130975000Y-92062500I-200000J0D01*
G01*
X130975000Y-92062500D02*
G75*
G02*
X131375000Y-92062500I200000J0D01*
G01*
D15*
%TO.C,J1*%
X135273000Y-99378500D02*
X135273000Y-115761500D01*
X135273000Y-115761500D02*
X149210505Y-115761500D01*
X149210505Y-99378500D02*
X135273000Y-99378500D01*
X151309496Y-115761500D02*
X157117000Y-115761500D01*
X157117000Y-99378500D02*
X151309496Y-99378500D01*
X157117000Y-115761500D02*
X157117000Y-99378500D01*
D16*
X142131000Y-98743500D02*
G75*
G02*
X141369000Y-98743500I-381000J0D01*
G01*
X141369000Y-98743500D02*
G75*
G02*
X142131000Y-98743500I381000J0D01*
G01*
D15*
%TO.C,J3*%
X125515200Y-101662489D02*
X125515200Y-112456413D01*
X128471376Y-113815851D02*
X130620601Y-113815851D01*
X130620601Y-100303051D02*
X128471376Y-100303051D01*
X130620601Y-102021511D02*
X130620601Y-100303051D01*
X130620601Y-113815851D02*
X130620601Y-112097391D01*
D16*
X130324601Y-98525051D02*
G75*
G02*
X129562601Y-98525051I-381000J0D01*
G01*
X129562601Y-98525051D02*
G75*
G02*
X130324601Y-98525051I381000J0D01*
G01*
D12*
%TO.C,D2*%
X137850000Y-92260000D02*
X137850000Y-85250000D01*
X137850000Y-92260000D02*
X141150000Y-92260000D01*
X141150000Y-92260000D02*
X141150000Y-85250000D01*
D15*
%TO.C,LED1*%
X145699900Y-92540150D02*
X145699900Y-92814050D01*
X147300100Y-92814050D02*
X147300100Y-92540150D01*
D12*
%TO.C,R1*%
X131765000Y-111772936D02*
X131765000Y-112227064D01*
X133235000Y-111772936D02*
X133235000Y-112227064D01*
%TD*%
M02*
